<svg id="Icon_-_SNS_Set" data-name="Icon - SNS Set" xmlns="http://www.w3.org/2000/svg" width="88" height="16.002" viewBox="0 0 88 16.002">
  <g id="Icon_-_Facebook" data-name="Icon - Facebook" transform="translate(72)">
    <path id="パス_782" data-name="パス 782" d="M23656.668,18714.455h0a7.989,7.989,0,1,1,2-.041v-5.082h2.168v-2h-2.168v-.166c0-2.264.7-2.668,2.668-2.668v-2l-.006,0c-2.17,0-4.658.529-4.658,4.666v.166h-2.168v2h2.168v5.123Z" transform="translate(-23649.5 -18698.498)" fill="#98a6b5"/>
  </g>
  <g id="Icon_-_Twitter" data-name="Icon - Twitter" transform="translate(36 2.002)">
    <path id="パス_779" data-name="パス 779" d="M1814.016,917.1a3.24,3.24,0,0,1,2.1-3.763c1.642-.744,3.316.848,3.316.848l2-.8c0,.857-1.429,1.714-1.429,1.714a6.975,6.975,0,0,0,2-.286c0,.286-1.714,1.714-1.714,1.714,0,6.857-5.143,9.714-9.429,9.714s-4.857-1.714-4.857-1.714c3.429,0,4.572-1.429,4.572-1.429-.857.571-2.857-2-2.857-2a3.275,3.275,0,0,0,1.714,0c-1.714-.286-2.857-3.429-2.857-3.429.286.571,1.714.571,1.714.571a4.032,4.032,0,0,1-1.143-4.571C1808.857,916.525,1814.016,917.1,1814.016,917.1Z" transform="translate(-1806 -913.135)" fill="#98a6b5"/>
  </g>
  <g id="Icon_-_Instagram" data-name="Icon - Instagram" transform="translate(0 0.003)">
    <g id="グループ_1486" data-name="グループ 1486" transform="translate(117.715 -183.825)">
      <path id="パス_784" data-name="パス 784" d="M-106.481,185.755a2.839,2.839,0,0,1,2.836,2.836v6.468a2.839,2.839,0,0,1-2.836,2.836h-6.468a2.839,2.839,0,0,1-2.836-2.836v-6.468a2.839,2.839,0,0,1,2.836-2.836h6.468m0-1.93h-6.468a4.78,4.78,0,0,0-4.766,4.766v6.468a4.78,4.78,0,0,0,4.766,4.766h6.468a4.78,4.78,0,0,0,4.766-4.766v-6.468a4.78,4.78,0,0,0-4.766-4.766Z" transform="translate(0 0)" fill="#98a6b5"/>
      <path id="パス_785" data-name="パス 785" d="M-83.694,191.825a1.021,1.021,0,0,0-1.021,1.021,1.021,1.021,0,0,0,1.021,1.021,1.021,1.021,0,0,0,1.021-1.021,1.021,1.021,0,0,0-1.021-1.021Z" transform="translate(-21.766 -5.277)" fill="#98a6b5"/>
      <g id="グループ_1485" data-name="グループ 1485" transform="translate(-113.971 187.569)">
        <path id="パス_786" data-name="パス 786" d="M-102.46,196.755a2.328,2.328,0,0,1,2.325,2.325,2.328,2.328,0,0,1-2.325,2.325,2.328,2.328,0,0,1-2.325-2.325,2.328,2.328,0,0,1,2.325-2.325m0-1.93a4.255,4.255,0,0,0-4.255,4.255,4.255,4.255,0,0,0,4.255,4.255A4.256,4.256,0,0,0-98.2,199.08a4.255,4.255,0,0,0-4.255-4.255Z" transform="translate(106.715 -194.825)" fill="#98a6b5"/>
      </g>
    </g>
  </g>
</svg>
